<svg width="512" height="512" viewBox="0 0 512 512" fill="none" xmlns="http://www.w3.org/2000/svg">
  <rect width="512" height="512" rx="140" fill="#17324A"/>
  <circle cx="256" cy="256" r="200" fill="white" fill-opacity="0.08"/>
  <circle cx="376" cy="120" r="56" fill="white" fill-opacity="0.1"/>
  <path d="M171 145C171 131.745 181.745 121 195 121H243C256.255 121 267 131.745 267 145V279.095C255.501 272.879 242.532 269 228.5 269H195C181.745 269 171 258.255 171 245V145Z" fill="#F8FBFF"/>
  <path d="M341 145C341 131.745 330.255 121 317 121H269C255.745 121 245 131.745 245 145V279.095C256.499 272.879 269.468 269 283.5 269H317C330.255 269 341 258.255 341 245V145Z" fill="#E7EFF7"/>
  <path d="M248 121H264C270.627 121 276 126.373 276 133V297C269.982 294.211 263.989 292.5 256 292.5C248.011 292.5 242.018 294.211 236 297V133C236 126.373 241.373 121 248 121Z" fill="#BDD5EA"/>
  <path d="M258.714 90.985C245.604 97.277 236.406 110.611 236.406 126.119C236.406 136.897 240.835 146.643 247.964 153.62C267.62 146.546 282.548 127.524 282.548 105.345C282.548 99.9095 281.681 94.6616 280.099 89.7798C273.548 88.3796 266.014 88.8465 258.714 90.985Z" fill="#7FD1C7"/>
  <path d="M114 318C142.667 394.444 197.519 432 256 432C314.481 432 369.333 394.444 398 318" stroke="#7FD1C7" stroke-width="18" stroke-linecap="round" stroke-linejoin="round"/>
  <path d="M143 291C168.759 342.037 207.894 368 256 368C304.106 368 343.241 342.037 369 291" stroke="#A9E4DD" stroke-width="18" stroke-linecap="round" stroke-linejoin="round"/>
  <rect x="193" y="159" width="54" height="36" rx="12" fill="white" fill-opacity="0.4"/>
</svg>
